<mxfile host="app.diagrams.net" modified="2020-12-22T15:38:40.358Z" agent="5.0 (Windows NT 10.0; Win64; x64) AppleWebKit/537.36 (KHTML, like Gecko) Chrome/87.0.4280.88 Safari/537.36 Edg/87.0.664.66" etag="BEsqtAr-P794Qs2TmZji" version="14.1.1" type="github">
  <diagram id="nZC7xLcd_EgV5DrBVxYe" name="Page-1">
    <mxGraphModel dx="1924" dy="1074" grid="1" gridSize="10" guides="1" tooltips="1" connect="1" arrows="1" fold="1" page="1" pageScale="1" pageWidth="1169" pageHeight="827" math="0" shadow="0">
      <root>
        <mxCell id="0" />
        <mxCell id="1" parent="0" />
        <mxCell id="G_O7UL8QgGPdSmfOtHH6-1" value="Account" style="swimlane;fontStyle=1;align=center;verticalAlign=top;childLayout=stackLayout;horizontal=1;startSize=40;horizontalStack=0;resizeParent=1;resizeParentMax=0;resizeLast=0;collapsible=1;marginBottom=0;" vertex="1" parent="1">
          <mxGeometry x="1200" y="950" width="260" height="450" as="geometry" />
        </mxCell>
        <mxCell id="G_O7UL8QgGPdSmfOtHH6-2" value="- name: String&#xa;- surname: String&#xa;- CF: String&#xa;- email: String&#xa;- password: String&#xa;- dateBirth: DateTime&#xa;- cityBirth: String&#xa;- numToken: Integer&#xa;- listReservations: ArrayList&lt;Reservation&gt;" style="text;strokeColor=none;fillColor=none;align=left;verticalAlign=top;spacingLeft=4;spacingRight=4;overflow=hidden;rotatable=0;points=[[0,0.5],[1,0.5]];portConstraint=eastwest;" vertex="1" parent="G_O7UL8QgGPdSmfOtHH6-1">
          <mxGeometry y="40" width="260" height="140" as="geometry" />
        </mxCell>
        <mxCell id="G_O7UL8QgGPdSmfOtHH6-3" value="" style="line;strokeWidth=1;fillColor=none;align=left;verticalAlign=middle;spacingTop=-1;spacingLeft=3;spacingRight=3;rotatable=0;labelPosition=right;points=[];portConstraint=eastwest;" vertex="1" parent="G_O7UL8QgGPdSmfOtHH6-1">
          <mxGeometry y="180" width="260" height="8" as="geometry" />
        </mxCell>
        <mxCell id="G_O7UL8QgGPdSmfOtHH6-4" value="+ setName(String). void&#xa;+ getName(): String&#xa;+ setSurname(String): void&#xa;+ getSurname(): String&#xa;+ setCF(String): void&#xa;+ getCF(): String&#xa;+ setEmail(String): void&#xa;+ getEmail(): String&#xa;+ setPassword(String): voif&#xa;+ getPassword(): String&#xa;+ setDateBirth(DateTime): void&#xa;+ getDateBirth(): DateTime&#xa;+ setCityBirth(String): void&#xa;+ getCityBirth(): String&#xa;+ setNumToke(Integer): void&#xa;+ getNumToken(): Integer&#xa;+ setListReservations(Reservation): void&#xa;+ getListReservations: ArrayList&lt;Reservation&gt;&#xa;&#xa;" style="text;strokeColor=none;fillColor=none;align=left;verticalAlign=top;spacingLeft=4;spacingRight=4;overflow=hidden;rotatable=0;points=[[0,0.5],[1,0.5]];portConstraint=eastwest;" vertex="1" parent="G_O7UL8QgGPdSmfOtHH6-1">
          <mxGeometry y="188" width="260" height="262" as="geometry" />
        </mxCell>
        <mxCell id="G_O7UL8QgGPdSmfOtHH6-9" value="Group" style="swimlane;fontStyle=1;align=center;verticalAlign=top;childLayout=stackLayout;horizontal=1;startSize=40;horizontalStack=0;resizeParent=1;resizeParentMax=0;resizeLast=0;collapsible=1;marginBottom=0;" vertex="1" parent="1">
          <mxGeometry x="1190" y="530" width="250" height="310" as="geometry" />
        </mxCell>
        <mxCell id="G_O7UL8QgGPdSmfOtHH6-10" value="- ID: Integer&#xa;- name: String&#xa;- partecipants: ArrayList &lt;Person&gt;&#xa;- numPartecipants: Integer&#xa;- admin: Account&#xa;" style="text;strokeColor=none;fillColor=none;align=left;verticalAlign=top;spacingLeft=4;spacingRight=4;overflow=hidden;rotatable=0;points=[[0,0.5],[1,0.5]];portConstraint=eastwest;" vertex="1" parent="G_O7UL8QgGPdSmfOtHH6-9">
          <mxGeometry y="40" width="250" height="80" as="geometry" />
        </mxCell>
        <mxCell id="G_O7UL8QgGPdSmfOtHH6-11" value="" style="line;strokeWidth=1;fillColor=none;align=left;verticalAlign=middle;spacingTop=-1;spacingLeft=3;spacingRight=3;rotatable=0;labelPosition=right;points=[];portConstraint=eastwest;" vertex="1" parent="G_O7UL8QgGPdSmfOtHH6-9">
          <mxGeometry y="120" width="250" height="8" as="geometry" />
        </mxCell>
        <mxCell id="G_O7UL8QgGPdSmfOtHH6-12" value="+ addPerson(Person): void&#xa;+ removePerson(Person): void&#xa;+ setID(Integer): void&#xa;+ getID(): Integer&#xa;+ setName(String): void&#xa;+ getName(): String&#xa;+ setPartecipants(Person): void&#xa;+ getPartecipants(): ArrayList&lt;Person&gt;&#xa;+ setNumPartecipants(Integer): void&#xa;+ getNumPartecipants(): Integer&#xa;+ setAdmin(Person): void&#xa;+ getAdmin(): Person" style="text;strokeColor=none;fillColor=none;align=left;verticalAlign=top;spacingLeft=4;spacingRight=4;overflow=hidden;rotatable=0;points=[[0,0.5],[1,0.5]];portConstraint=eastwest;" vertex="1" parent="G_O7UL8QgGPdSmfOtHH6-9">
          <mxGeometry y="128" width="250" height="182" as="geometry" />
        </mxCell>
        <mxCell id="G_O7UL8QgGPdSmfOtHH6-13" value="Person" style="swimlane;fontStyle=1;align=center;verticalAlign=top;childLayout=stackLayout;horizontal=1;startSize=40;horizontalStack=0;resizeParent=1;resizeParentMax=0;resizeLast=0;collapsible=1;marginBottom=0;" vertex="1" parent="1">
          <mxGeometry x="1210" y="90" width="200" height="380" as="geometry" />
        </mxCell>
        <mxCell id="G_O7UL8QgGPdSmfOtHH6-14" value="- ID: Integer&#xa;- username: String&#xa;- studyGrade: String&#xa;- school: String&#xa;- account: Account&#xa;- hostRating: Float&#xa;- guestRating: Float&#xa;- reviews: ArrayList&lt;Review&gt;" style="text;strokeColor=none;fillColor=none;align=left;verticalAlign=top;spacingLeft=4;spacingRight=4;overflow=hidden;rotatable=0;points=[[0,0.5],[1,0.5]];portConstraint=eastwest;" vertex="1" parent="G_O7UL8QgGPdSmfOtHH6-13">
          <mxGeometry y="40" width="200" height="120" as="geometry" />
        </mxCell>
        <mxCell id="G_O7UL8QgGPdSmfOtHH6-15" value="" style="line;strokeWidth=1;fillColor=none;align=left;verticalAlign=middle;spacingTop=-1;spacingLeft=3;spacingRight=3;rotatable=0;labelPosition=right;points=[];portConstraint=eastwest;" vertex="1" parent="G_O7UL8QgGPdSmfOtHH6-13">
          <mxGeometry y="160" width="200" height="8" as="geometry" />
        </mxCell>
        <mxCell id="G_O7UL8QgGPdSmfOtHH6-16" value="+ setID(Integer): void&#xa;+ getID(): Integer&#xa;+ setUsername(String): void&#xa;+ getUsername(): String&#xa;+ setSchool(String): void&#xa;+ getSchool(): String&#xa;+ setAccount(Account): void&#xa;+ getAccount(): Account&#xa;+ setHostRating(Float): void&#xa;+ getHostRating(): Float&#xa;+ setGuestRating(Float): void&#xa;+ getGuestRating(): Float&#xa;+ setReviews(Review): void&#xa;+ getReviews(): ArrayList&lt;Review&gt;" style="text;strokeColor=none;fillColor=none;align=left;verticalAlign=top;spacingLeft=4;spacingRight=4;overflow=hidden;rotatable=0;points=[[0,0.5],[1,0.5]];portConstraint=eastwest;" vertex="1" parent="G_O7UL8QgGPdSmfOtHH6-13">
          <mxGeometry y="168" width="200" height="212" as="geometry" />
        </mxCell>
        <mxCell id="G_O7UL8QgGPdSmfOtHH6-77" style="edgeStyle=orthogonalEdgeStyle;rounded=0;orthogonalLoop=1;jettySize=auto;html=1;exitX=0.5;exitY=0;exitDx=0;exitDy=0;endArrow=none;endFill=0;entryX=0.528;entryY=1.03;entryDx=0;entryDy=0;entryPerimeter=0;dashed=1;" edge="1" parent="1" source="G_O7UL8QgGPdSmfOtHH6-17" target="G_O7UL8QgGPdSmfOtHH6-66">
          <mxGeometry relative="1" as="geometry">
            <mxPoint x="770" y="549.9999999999998" as="targetPoint" />
            <Array as="points">
              <mxPoint x="772" y="607" />
            </Array>
          </mxGeometry>
        </mxCell>
        <mxCell id="G_O7UL8QgGPdSmfOtHH6-17" value="GroupCreationController" style="swimlane;fontStyle=1;align=center;verticalAlign=top;childLayout=stackLayout;horizontal=1;startSize=40;horizontalStack=0;resizeParent=1;resizeParentMax=0;resizeLast=0;collapsible=1;marginBottom=0;" vertex="1" parent="1">
          <mxGeometry x="650" y="607" width="255.5" height="220" as="geometry" />
        </mxCell>
        <mxCell id="G_O7UL8QgGPdSmfOtHH6-18" value="- instance: GroupCreationController" style="text;strokeColor=none;fillColor=none;align=left;verticalAlign=top;spacingLeft=4;spacingRight=4;overflow=hidden;rotatable=0;points=[[0,0.5],[1,0.5]];portConstraint=eastwest;" vertex="1" parent="G_O7UL8QgGPdSmfOtHH6-17">
          <mxGeometry y="40" width="255.5" height="26" as="geometry" />
        </mxCell>
        <mxCell id="G_O7UL8QgGPdSmfOtHH6-19" value="" style="line;strokeWidth=1;fillColor=none;align=left;verticalAlign=middle;spacingTop=-1;spacingLeft=3;spacingRight=3;rotatable=0;labelPosition=right;points=[];portConstraint=eastwest;" vertex="1" parent="G_O7UL8QgGPdSmfOtHH6-17">
          <mxGeometry y="66" width="255.5" height="8" as="geometry" />
        </mxCell>
        <mxCell id="G_O7UL8QgGPdSmfOtHH6-20" value="+ groupCreation(): void&#xa;+ addMember(Person): void&#xa;+ removeMember(Person): void&#xa;+ retrieveAdmin(): Account&#xa;+ deleteGroup(): void&#xa;+ getInstance(): GroupCreationController" style="text;strokeColor=none;fillColor=none;align=left;verticalAlign=top;spacingLeft=4;spacingRight=4;overflow=hidden;rotatable=0;points=[[0,0.5],[1,0.5]];portConstraint=eastwest;" vertex="1" parent="G_O7UL8QgGPdSmfOtHH6-17">
          <mxGeometry y="74" width="255.5" height="146" as="geometry" />
        </mxCell>
        <mxCell id="G_O7UL8QgGPdSmfOtHH6-33" value="&lt;&lt;interface&gt;&gt;&#xa;PersonDAO" style="swimlane;fontStyle=1;align=center;verticalAlign=top;childLayout=stackLayout;horizontal=1;startSize=40;horizontalStack=0;resizeParent=1;resizeParentMax=0;resizeLast=0;collapsible=1;marginBottom=0;" vertex="1" parent="1">
          <mxGeometry x="1600" y="230" width="160" height="100" as="geometry">
            <mxRectangle x="490" y="250" width="160" height="40" as="alternateBounds" />
          </mxGeometry>
        </mxCell>
        <mxCell id="G_O7UL8QgGPdSmfOtHH6-34" value="+ field: type" style="text;strokeColor=none;fillColor=none;align=left;verticalAlign=top;spacingLeft=4;spacingRight=4;overflow=hidden;rotatable=0;points=[[0,0.5],[1,0.5]];portConstraint=eastwest;" vertex="1" parent="G_O7UL8QgGPdSmfOtHH6-33">
          <mxGeometry y="40" width="160" height="26" as="geometry" />
        </mxCell>
        <mxCell id="G_O7UL8QgGPdSmfOtHH6-35" value="" style="line;strokeWidth=1;fillColor=none;align=left;verticalAlign=middle;spacingTop=-1;spacingLeft=3;spacingRight=3;rotatable=0;labelPosition=right;points=[];portConstraint=eastwest;" vertex="1" parent="G_O7UL8QgGPdSmfOtHH6-33">
          <mxGeometry y="66" width="160" height="8" as="geometry" />
        </mxCell>
        <mxCell id="G_O7UL8QgGPdSmfOtHH6-36" value="+ method(type): type" style="text;strokeColor=none;fillColor=none;align=left;verticalAlign=top;spacingLeft=4;spacingRight=4;overflow=hidden;rotatable=0;points=[[0,0.5],[1,0.5]];portConstraint=eastwest;" vertex="1" parent="G_O7UL8QgGPdSmfOtHH6-33">
          <mxGeometry y="74" width="160" height="26" as="geometry" />
        </mxCell>
        <mxCell id="G_O7UL8QgGPdSmfOtHH6-37" style="edgeStyle=orthogonalEdgeStyle;rounded=0;orthogonalLoop=1;jettySize=auto;html=1;endArrow=blockThin;endFill=0;dashed=1;exitX=1;exitY=0.5;exitDx=0;exitDy=0;" edge="1" parent="1" source="G_O7UL8QgGPdSmfOtHH6-33" target="G_O7UL8QgGPdSmfOtHH6-38">
          <mxGeometry relative="1" as="geometry" />
        </mxCell>
        <mxCell id="G_O7UL8QgGPdSmfOtHH6-38" value="PersonDAOImpl" style="swimlane;fontStyle=1;align=center;verticalAlign=top;childLayout=stackLayout;horizontal=1;startSize=40;horizontalStack=0;resizeParent=1;resizeParentMax=0;resizeLast=0;collapsible=1;marginBottom=0;" vertex="1" parent="1">
          <mxGeometry x="1830" y="230" width="160" height="100" as="geometry">
            <mxRectangle x="490" y="250" width="160" height="40" as="alternateBounds" />
          </mxGeometry>
        </mxCell>
        <mxCell id="G_O7UL8QgGPdSmfOtHH6-39" value="+ field: type" style="text;strokeColor=none;fillColor=none;align=left;verticalAlign=top;spacingLeft=4;spacingRight=4;overflow=hidden;rotatable=0;points=[[0,0.5],[1,0.5]];portConstraint=eastwest;" vertex="1" parent="G_O7UL8QgGPdSmfOtHH6-38">
          <mxGeometry y="40" width="160" height="26" as="geometry" />
        </mxCell>
        <mxCell id="G_O7UL8QgGPdSmfOtHH6-40" value="" style="line;strokeWidth=1;fillColor=none;align=left;verticalAlign=middle;spacingTop=-1;spacingLeft=3;spacingRight=3;rotatable=0;labelPosition=right;points=[];portConstraint=eastwest;" vertex="1" parent="G_O7UL8QgGPdSmfOtHH6-38">
          <mxGeometry y="66" width="160" height="8" as="geometry" />
        </mxCell>
        <mxCell id="G_O7UL8QgGPdSmfOtHH6-41" value="+ method(type): type" style="text;strokeColor=none;fillColor=none;align=left;verticalAlign=top;spacingLeft=4;spacingRight=4;overflow=hidden;rotatable=0;points=[[0,0.5],[1,0.5]];portConstraint=eastwest;" vertex="1" parent="G_O7UL8QgGPdSmfOtHH6-38">
          <mxGeometry y="74" width="160" height="26" as="geometry" />
        </mxCell>
        <mxCell id="G_O7UL8QgGPdSmfOtHH6-42" value="&lt;&lt;interface&gt;&gt;&#xa;GroupDAO" style="swimlane;fontStyle=1;align=center;verticalAlign=top;childLayout=stackLayout;horizontal=1;startSize=40;horizontalStack=0;resizeParent=1;resizeParentMax=0;resizeLast=0;collapsible=1;marginBottom=0;" vertex="1" parent="1">
          <mxGeometry x="1600" y="635" width="160" height="100" as="geometry">
            <mxRectangle x="490" y="250" width="160" height="40" as="alternateBounds" />
          </mxGeometry>
        </mxCell>
        <mxCell id="G_O7UL8QgGPdSmfOtHH6-43" value="+ field: type" style="text;strokeColor=none;fillColor=none;align=left;verticalAlign=top;spacingLeft=4;spacingRight=4;overflow=hidden;rotatable=0;points=[[0,0.5],[1,0.5]];portConstraint=eastwest;" vertex="1" parent="G_O7UL8QgGPdSmfOtHH6-42">
          <mxGeometry y="40" width="160" height="26" as="geometry" />
        </mxCell>
        <mxCell id="G_O7UL8QgGPdSmfOtHH6-44" value="" style="line;strokeWidth=1;fillColor=none;align=left;verticalAlign=middle;spacingTop=-1;spacingLeft=3;spacingRight=3;rotatable=0;labelPosition=right;points=[];portConstraint=eastwest;" vertex="1" parent="G_O7UL8QgGPdSmfOtHH6-42">
          <mxGeometry y="66" width="160" height="8" as="geometry" />
        </mxCell>
        <mxCell id="G_O7UL8QgGPdSmfOtHH6-45" value="+ method(type): type" style="text;strokeColor=none;fillColor=none;align=left;verticalAlign=top;spacingLeft=4;spacingRight=4;overflow=hidden;rotatable=0;points=[[0,0.5],[1,0.5]];portConstraint=eastwest;" vertex="1" parent="G_O7UL8QgGPdSmfOtHH6-42">
          <mxGeometry y="74" width="160" height="26" as="geometry" />
        </mxCell>
        <mxCell id="G_O7UL8QgGPdSmfOtHH6-46" style="edgeStyle=orthogonalEdgeStyle;rounded=0;orthogonalLoop=1;jettySize=auto;html=1;endArrow=blockThin;endFill=0;dashed=1;exitX=1;exitY=0.5;exitDx=0;exitDy=0;" edge="1" parent="1" source="G_O7UL8QgGPdSmfOtHH6-43" target="G_O7UL8QgGPdSmfOtHH6-47">
          <mxGeometry relative="1" as="geometry">
            <Array as="points">
              <mxPoint x="1760" y="685" />
            </Array>
          </mxGeometry>
        </mxCell>
        <mxCell id="G_O7UL8QgGPdSmfOtHH6-47" value="GroupDAOImpl" style="swimlane;fontStyle=1;align=center;verticalAlign=top;childLayout=stackLayout;horizontal=1;startSize=40;horizontalStack=0;resizeParent=1;resizeParentMax=0;resizeLast=0;collapsible=1;marginBottom=0;" vertex="1" parent="1">
          <mxGeometry x="1830" y="635" width="160" height="100" as="geometry">
            <mxRectangle x="490" y="250" width="160" height="40" as="alternateBounds" />
          </mxGeometry>
        </mxCell>
        <mxCell id="G_O7UL8QgGPdSmfOtHH6-48" value="+ field: type" style="text;strokeColor=none;fillColor=none;align=left;verticalAlign=top;spacingLeft=4;spacingRight=4;overflow=hidden;rotatable=0;points=[[0,0.5],[1,0.5]];portConstraint=eastwest;" vertex="1" parent="G_O7UL8QgGPdSmfOtHH6-47">
          <mxGeometry y="40" width="160" height="26" as="geometry" />
        </mxCell>
        <mxCell id="G_O7UL8QgGPdSmfOtHH6-49" value="" style="line;strokeWidth=1;fillColor=none;align=left;verticalAlign=middle;spacingTop=-1;spacingLeft=3;spacingRight=3;rotatable=0;labelPosition=right;points=[];portConstraint=eastwest;" vertex="1" parent="G_O7UL8QgGPdSmfOtHH6-47">
          <mxGeometry y="66" width="160" height="8" as="geometry" />
        </mxCell>
        <mxCell id="G_O7UL8QgGPdSmfOtHH6-50" value="+ method(type): type" style="text;strokeColor=none;fillColor=none;align=left;verticalAlign=top;spacingLeft=4;spacingRight=4;overflow=hidden;rotatable=0;points=[[0,0.5],[1,0.5]];portConstraint=eastwest;" vertex="1" parent="G_O7UL8QgGPdSmfOtHH6-47">
          <mxGeometry y="74" width="160" height="26" as="geometry" />
        </mxCell>
        <mxCell id="G_O7UL8QgGPdSmfOtHH6-51" value="&lt;&lt;interface&gt;&gt;&#xa;AccountDAO" style="swimlane;fontStyle=1;align=center;verticalAlign=top;childLayout=stackLayout;horizontal=1;startSize=40;horizontalStack=0;resizeParent=1;resizeParentMax=0;resizeLast=0;collapsible=1;marginBottom=0;" vertex="1" parent="1">
          <mxGeometry x="1600" y="1000" width="160" height="100" as="geometry">
            <mxRectangle x="490" y="250" width="160" height="40" as="alternateBounds" />
          </mxGeometry>
        </mxCell>
        <mxCell id="G_O7UL8QgGPdSmfOtHH6-52" value="+ field: type" style="text;strokeColor=none;fillColor=none;align=left;verticalAlign=top;spacingLeft=4;spacingRight=4;overflow=hidden;rotatable=0;points=[[0,0.5],[1,0.5]];portConstraint=eastwest;" vertex="1" parent="G_O7UL8QgGPdSmfOtHH6-51">
          <mxGeometry y="40" width="160" height="26" as="geometry" />
        </mxCell>
        <mxCell id="G_O7UL8QgGPdSmfOtHH6-53" value="" style="line;strokeWidth=1;fillColor=none;align=left;verticalAlign=middle;spacingTop=-1;spacingLeft=3;spacingRight=3;rotatable=0;labelPosition=right;points=[];portConstraint=eastwest;" vertex="1" parent="G_O7UL8QgGPdSmfOtHH6-51">
          <mxGeometry y="66" width="160" height="8" as="geometry" />
        </mxCell>
        <mxCell id="G_O7UL8QgGPdSmfOtHH6-54" value="+ method(type): type" style="text;strokeColor=none;fillColor=none;align=left;verticalAlign=top;spacingLeft=4;spacingRight=4;overflow=hidden;rotatable=0;points=[[0,0.5],[1,0.5]];portConstraint=eastwest;" vertex="1" parent="G_O7UL8QgGPdSmfOtHH6-51">
          <mxGeometry y="74" width="160" height="26" as="geometry" />
        </mxCell>
        <mxCell id="G_O7UL8QgGPdSmfOtHH6-55" style="edgeStyle=orthogonalEdgeStyle;rounded=0;orthogonalLoop=1;jettySize=auto;html=1;endArrow=blockThin;endFill=0;dashed=1;exitX=0.993;exitY=0.333;exitDx=0;exitDy=0;exitPerimeter=0;" edge="1" parent="1" source="G_O7UL8QgGPdSmfOtHH6-52" target="G_O7UL8QgGPdSmfOtHH6-56">
          <mxGeometry relative="1" as="geometry">
            <Array as="points">
              <mxPoint x="1759" y="1050" />
            </Array>
          </mxGeometry>
        </mxCell>
        <mxCell id="G_O7UL8QgGPdSmfOtHH6-56" value="AccountDAOImpl" style="swimlane;fontStyle=1;align=center;verticalAlign=top;childLayout=stackLayout;horizontal=1;startSize=40;horizontalStack=0;resizeParent=1;resizeParentMax=0;resizeLast=0;collapsible=1;marginBottom=0;" vertex="1" parent="1">
          <mxGeometry x="1830" y="1000" width="160" height="100" as="geometry">
            <mxRectangle x="490" y="250" width="160" height="40" as="alternateBounds" />
          </mxGeometry>
        </mxCell>
        <mxCell id="G_O7UL8QgGPdSmfOtHH6-57" value="+ field: type" style="text;strokeColor=none;fillColor=none;align=left;verticalAlign=top;spacingLeft=4;spacingRight=4;overflow=hidden;rotatable=0;points=[[0,0.5],[1,0.5]];portConstraint=eastwest;" vertex="1" parent="G_O7UL8QgGPdSmfOtHH6-56">
          <mxGeometry y="40" width="160" height="26" as="geometry" />
        </mxCell>
        <mxCell id="G_O7UL8QgGPdSmfOtHH6-58" value="" style="line;strokeWidth=1;fillColor=none;align=left;verticalAlign=middle;spacingTop=-1;spacingLeft=3;spacingRight=3;rotatable=0;labelPosition=right;points=[];portConstraint=eastwest;" vertex="1" parent="G_O7UL8QgGPdSmfOtHH6-56">
          <mxGeometry y="66" width="160" height="8" as="geometry" />
        </mxCell>
        <mxCell id="G_O7UL8QgGPdSmfOtHH6-59" value="+ method(type): type" style="text;strokeColor=none;fillColor=none;align=left;verticalAlign=top;spacingLeft=4;spacingRight=4;overflow=hidden;rotatable=0;points=[[0,0.5],[1,0.5]];portConstraint=eastwest;" vertex="1" parent="G_O7UL8QgGPdSmfOtHH6-56">
          <mxGeometry y="74" width="160" height="26" as="geometry" />
        </mxCell>
        <mxCell id="G_O7UL8QgGPdSmfOtHH6-60" style="edgeStyle=orthogonalEdgeStyle;rounded=0;orthogonalLoop=1;jettySize=auto;html=1;exitX=1;exitY=0.5;exitDx=0;exitDy=0;entryX=0;entryY=0.5;entryDx=0;entryDy=0;endArrow=none;endFill=0;" edge="1" parent="1" source="G_O7UL8QgGPdSmfOtHH6-2" target="G_O7UL8QgGPdSmfOtHH6-52">
          <mxGeometry relative="1" as="geometry">
            <Array as="points">
              <mxPoint x="1600" y="1060" />
            </Array>
          </mxGeometry>
        </mxCell>
        <mxCell id="G_O7UL8QgGPdSmfOtHH6-61" style="edgeStyle=orthogonalEdgeStyle;rounded=0;orthogonalLoop=1;jettySize=auto;html=1;exitX=1;exitY=0.5;exitDx=0;exitDy=0;entryX=0;entryY=0.5;entryDx=0;entryDy=0;endArrow=none;endFill=0;" edge="1" parent="1" source="G_O7UL8QgGPdSmfOtHH6-10" target="G_O7UL8QgGPdSmfOtHH6-43">
          <mxGeometry relative="1" as="geometry" />
        </mxCell>
        <mxCell id="G_O7UL8QgGPdSmfOtHH6-62" style="edgeStyle=orthogonalEdgeStyle;rounded=0;orthogonalLoop=1;jettySize=auto;html=1;exitX=1;exitY=0.5;exitDx=0;exitDy=0;entryX=0;entryY=0.5;entryDx=0;entryDy=0;endArrow=none;endFill=0;" edge="1" parent="1" source="G_O7UL8QgGPdSmfOtHH6-14" target="G_O7UL8QgGPdSmfOtHH6-34">
          <mxGeometry relative="1" as="geometry" />
        </mxCell>
        <mxCell id="G_O7UL8QgGPdSmfOtHH6-63" value="GroupBean" style="swimlane;fontStyle=1;align=center;verticalAlign=top;childLayout=stackLayout;horizontal=1;startSize=26;horizontalStack=0;resizeParent=1;resizeParentMax=0;resizeLast=0;collapsible=1;marginBottom=0;" vertex="1" parent="1">
          <mxGeometry x="687.75" y="460" width="160" height="86" as="geometry" />
        </mxCell>
        <mxCell id="G_O7UL8QgGPdSmfOtHH6-64" value="+ field: type" style="text;strokeColor=none;fillColor=none;align=left;verticalAlign=top;spacingLeft=4;spacingRight=4;overflow=hidden;rotatable=0;points=[[0,0.5],[1,0.5]];portConstraint=eastwest;" vertex="1" parent="G_O7UL8QgGPdSmfOtHH6-63">
          <mxGeometry y="26" width="160" height="26" as="geometry" />
        </mxCell>
        <mxCell id="G_O7UL8QgGPdSmfOtHH6-65" value="" style="line;strokeWidth=1;fillColor=none;align=left;verticalAlign=middle;spacingTop=-1;spacingLeft=3;spacingRight=3;rotatable=0;labelPosition=right;points=[];portConstraint=eastwest;" vertex="1" parent="G_O7UL8QgGPdSmfOtHH6-63">
          <mxGeometry y="52" width="160" height="8" as="geometry" />
        </mxCell>
        <mxCell id="G_O7UL8QgGPdSmfOtHH6-66" value="+ method(type): type" style="text;strokeColor=none;fillColor=none;align=left;verticalAlign=top;spacingLeft=4;spacingRight=4;overflow=hidden;rotatable=0;points=[[0,0.5],[1,0.5]];portConstraint=eastwest;" vertex="1" parent="G_O7UL8QgGPdSmfOtHH6-63">
          <mxGeometry y="60" width="160" height="26" as="geometry" />
        </mxCell>
        <mxCell id="G_O7UL8QgGPdSmfOtHH6-76" style="edgeStyle=orthogonalEdgeStyle;rounded=0;orthogonalLoop=1;jettySize=auto;html=1;exitX=0.5;exitY=0;exitDx=0;exitDy=0;entryX=0;entryY=0.5;entryDx=0;entryDy=0;endArrow=none;endFill=0;dashed=1;" edge="1" parent="1" source="G_O7UL8QgGPdSmfOtHH6-67" target="G_O7UL8QgGPdSmfOtHH6-66">
          <mxGeometry relative="1" as="geometry">
            <Array as="points">
              <mxPoint x="430" y="607" />
              <mxPoint x="430" y="533" />
            </Array>
          </mxGeometry>
        </mxCell>
        <mxCell id="G_O7UL8QgGPdSmfOtHH6-80" style="edgeStyle=orthogonalEdgeStyle;rounded=0;orthogonalLoop=1;jettySize=auto;html=1;exitX=0.5;exitY=0;exitDx=0;exitDy=0;entryX=0;entryY=0.5;entryDx=0;entryDy=0;endArrow=none;endFill=0;" edge="1" parent="1" source="G_O7UL8QgGPdSmfOtHH6-67" target="G_O7UL8QgGPdSmfOtHH6-74">
          <mxGeometry relative="1" as="geometry" />
        </mxCell>
        <mxCell id="G_O7UL8QgGPdSmfOtHH6-67" value="GroupCreationViewController" style="swimlane;fontStyle=1;align=center;verticalAlign=top;childLayout=stackLayout;horizontal=1;startSize=40;horizontalStack=0;resizeParent=1;resizeParentMax=0;resizeLast=0;collapsible=1;marginBottom=0;" vertex="1" parent="1">
          <mxGeometry x="190" y="600" width="255.5" height="220" as="geometry" />
        </mxCell>
        <mxCell id="G_O7UL8QgGPdSmfOtHH6-68" value="- instance: GroupCreationController" style="text;strokeColor=none;fillColor=none;align=left;verticalAlign=top;spacingLeft=4;spacingRight=4;overflow=hidden;rotatable=0;points=[[0,0.5],[1,0.5]];portConstraint=eastwest;" vertex="1" parent="G_O7UL8QgGPdSmfOtHH6-67">
          <mxGeometry y="40" width="255.5" height="26" as="geometry" />
        </mxCell>
        <mxCell id="G_O7UL8QgGPdSmfOtHH6-69" value="" style="line;strokeWidth=1;fillColor=none;align=left;verticalAlign=middle;spacingTop=-1;spacingLeft=3;spacingRight=3;rotatable=0;labelPosition=right;points=[];portConstraint=eastwest;" vertex="1" parent="G_O7UL8QgGPdSmfOtHH6-67">
          <mxGeometry y="66" width="255.5" height="8" as="geometry" />
        </mxCell>
        <mxCell id="G_O7UL8QgGPdSmfOtHH6-70" value="+ groupCreation(): void&#xa;+ addMember(Person): void&#xa;+ removeMember(Person): void&#xa;+ retrieveAdmin(): Account&#xa;+ deleteGroup(): void&#xa;+ getInstance(): GroupCreationController" style="text;strokeColor=none;fillColor=none;align=left;verticalAlign=top;spacingLeft=4;spacingRight=4;overflow=hidden;rotatable=0;points=[[0,0.5],[1,0.5]];portConstraint=eastwest;" vertex="1" parent="G_O7UL8QgGPdSmfOtHH6-67">
          <mxGeometry y="74" width="255.5" height="146" as="geometry" />
        </mxCell>
        <mxCell id="G_O7UL8QgGPdSmfOtHH6-71" value="GroupCreationView" style="swimlane;fontStyle=1;align=center;verticalAlign=top;childLayout=stackLayout;horizontal=1;startSize=40;horizontalStack=0;resizeParent=1;resizeParentMax=0;resizeLast=0;collapsible=1;marginBottom=0;" vertex="1" parent="1">
          <mxGeometry x="340" y="194" width="255.5" height="220" as="geometry" />
        </mxCell>
        <mxCell id="G_O7UL8QgGPdSmfOtHH6-72" value="- instance: GroupCreationController" style="text;strokeColor=none;fillColor=none;align=left;verticalAlign=top;spacingLeft=4;spacingRight=4;overflow=hidden;rotatable=0;points=[[0,0.5],[1,0.5]];portConstraint=eastwest;" vertex="1" parent="G_O7UL8QgGPdSmfOtHH6-71">
          <mxGeometry y="40" width="255.5" height="26" as="geometry" />
        </mxCell>
        <mxCell id="G_O7UL8QgGPdSmfOtHH6-73" value="" style="line;strokeWidth=1;fillColor=none;align=left;verticalAlign=middle;spacingTop=-1;spacingLeft=3;spacingRight=3;rotatable=0;labelPosition=right;points=[];portConstraint=eastwest;" vertex="1" parent="G_O7UL8QgGPdSmfOtHH6-71">
          <mxGeometry y="66" width="255.5" height="8" as="geometry" />
        </mxCell>
        <mxCell id="G_O7UL8QgGPdSmfOtHH6-74" value="+ groupCreation(): void&#xa;+ addMember(Person): void&#xa;+ removeMember(Person): void&#xa;+ retrieveAdmin(): Account&#xa;+ deleteGroup(): void&#xa;+ getInstance(): GroupCreationController" style="text;strokeColor=none;fillColor=none;align=left;verticalAlign=top;spacingLeft=4;spacingRight=4;overflow=hidden;rotatable=0;points=[[0,0.5],[1,0.5]];portConstraint=eastwest;" vertex="1" parent="G_O7UL8QgGPdSmfOtHH6-71">
          <mxGeometry y="74" width="255.5" height="146" as="geometry" />
        </mxCell>
        <mxCell id="G_O7UL8QgGPdSmfOtHH6-75" style="edgeStyle=orthogonalEdgeStyle;rounded=0;orthogonalLoop=1;jettySize=auto;html=1;exitX=1;exitY=0.5;exitDx=0;exitDy=0;entryX=0;entryY=0.5;entryDx=0;entryDy=0;endArrow=none;endFill=0;dashed=1;" edge="1" parent="1" source="G_O7UL8QgGPdSmfOtHH6-74" target="G_O7UL8QgGPdSmfOtHH6-64">
          <mxGeometry relative="1" as="geometry" />
        </mxCell>
        <mxCell id="G_O7UL8QgGPdSmfOtHH6-78" style="edgeStyle=orthogonalEdgeStyle;rounded=0;orthogonalLoop=1;jettySize=auto;html=1;exitX=1;exitY=0.5;exitDx=0;exitDy=0;entryX=0;entryY=0.5;entryDx=0;entryDy=0;dashed=1;endArrow=none;endFill=0;" edge="1" parent="1" source="G_O7UL8QgGPdSmfOtHH6-64" target="G_O7UL8QgGPdSmfOtHH6-10">
          <mxGeometry relative="1" as="geometry" />
        </mxCell>
        <mxCell id="G_O7UL8QgGPdSmfOtHH6-79" style="edgeStyle=orthogonalEdgeStyle;rounded=0;orthogonalLoop=1;jettySize=auto;html=1;exitX=1;exitY=0.5;exitDx=0;exitDy=0;entryX=0;entryY=0.5;entryDx=0;entryDy=0;endArrow=none;endFill=0;" edge="1" parent="1" source="G_O7UL8QgGPdSmfOtHH6-70" target="G_O7UL8QgGPdSmfOtHH6-20">
          <mxGeometry relative="1" as="geometry">
            <Array as="points">
              <mxPoint x="650" y="747" />
            </Array>
          </mxGeometry>
        </mxCell>
        <mxCell id="G_O7UL8QgGPdSmfOtHH6-81" style="edgeStyle=orthogonalEdgeStyle;rounded=0;orthogonalLoop=1;jettySize=auto;html=1;exitX=1;exitY=0.5;exitDx=0;exitDy=0;entryX=0;entryY=0.5;entryDx=0;entryDy=0;endArrow=none;endFill=0;" edge="1" parent="1" source="G_O7UL8QgGPdSmfOtHH6-20" target="G_O7UL8QgGPdSmfOtHH6-12">
          <mxGeometry relative="1" as="geometry">
            <Array as="points">
              <mxPoint x="906" y="749" />
            </Array>
          </mxGeometry>
        </mxCell>
        <mxCell id="G_O7UL8QgGPdSmfOtHH6-82" style="edgeStyle=orthogonalEdgeStyle;rounded=0;orthogonalLoop=1;jettySize=auto;html=1;exitX=1;exitY=0.5;exitDx=0;exitDy=0;entryX=0;entryY=0.5;entryDx=0;entryDy=0;endArrow=none;endFill=0;" edge="1" parent="1" source="G_O7UL8QgGPdSmfOtHH6-20" target="G_O7UL8QgGPdSmfOtHH6-4">
          <mxGeometry relative="1" as="geometry">
            <Array as="points">
              <mxPoint x="906" y="800" />
              <mxPoint x="1053" y="800" />
              <mxPoint x="1053" y="1189" />
            </Array>
          </mxGeometry>
        </mxCell>
        <mxCell id="G_O7UL8QgGPdSmfOtHH6-83" style="edgeStyle=orthogonalEdgeStyle;rounded=0;orthogonalLoop=1;jettySize=auto;html=1;exitX=1;exitY=0.5;exitDx=0;exitDy=0;endArrow=none;endFill=0;" edge="1" parent="1" source="G_O7UL8QgGPdSmfOtHH6-20" target="G_O7UL8QgGPdSmfOtHH6-16">
          <mxGeometry relative="1" as="geometry">
            <Array as="points">
              <mxPoint x="906" y="680" />
              <mxPoint x="1058" y="680" />
              <mxPoint x="1058" y="364" />
            </Array>
          </mxGeometry>
        </mxCell>
        <mxCell id="G_O7UL8QgGPdSmfOtHH6-84" value="&amp;nbsp;Composizione Stesso admin piu group" style="text;html=1;align=center;verticalAlign=middle;resizable=0;points=[];autosize=1;" vertex="1" parent="1">
          <mxGeometry x="1220" y="880" width="220" height="20" as="geometry" />
        </mxCell>
        <mxCell id="G_O7UL8QgGPdSmfOtHH6-85" value="Composizione più persone per gruppi" style="text;html=1;align=center;verticalAlign=middle;resizable=0;points=[];autosize=1;" vertex="1" parent="1">
          <mxGeometry x="1210" y="493" width="210" height="20" as="geometry" />
        </mxCell>
      </root>
    </mxGraphModel>
  </diagram>
</mxfile>
